<mxfile host="65bd71144e">
    <diagram id="v_jvC-EwFsgj7XXhHwsA" name="Page-1">
        <mxGraphModel dx="1596" dy="2923" grid="1" gridSize="10" guides="1" tooltips="1" connect="1" arrows="1" fold="1" page="1" pageScale="1" pageWidth="850" pageHeight="1100" math="0" shadow="0">
            <root>
                <mxCell id="0"/>
                <mxCell id="1" parent="0"/>
                <mxCell id="2" value="PayApp Server" style="shape=umlLifeline;perimeter=lifelinePerimeter;whiteSpace=wrap;html=1;container=1;dropTarget=0;collapsible=0;recursiveResize=0;outlineConnect=0;portConstraint=eastwest;newEdgeStyle={&quot;curved&quot;:0,&quot;rounded&quot;:0};" vertex="1" parent="1">
                    <mxGeometry x="130" y="-1080" width="100" height="2160" as="geometry"/>
                </mxCell>
                <mxCell id="3" value="Payloop UI" style="shape=umlLifeline;perimeter=lifelinePerimeter;whiteSpace=wrap;html=1;container=1;dropTarget=0;collapsible=0;recursiveResize=0;outlineConnect=0;portConstraint=eastwest;newEdgeStyle={&quot;curved&quot;:0,&quot;rounded&quot;:0};" vertex="1" parent="1">
                    <mxGeometry x="-430" y="-1080" width="100" height="2160" as="geometry"/>
                </mxCell>
                <mxCell id="4" value="Hyperswitch" style="shape=umlLifeline;perimeter=lifelinePerimeter;whiteSpace=wrap;html=1;container=1;dropTarget=0;collapsible=0;recursiveResize=0;outlineConnect=0;portConstraint=eastwest;newEdgeStyle={&quot;curved&quot;:0,&quot;rounded&quot;:0};" vertex="1" parent="1">
                    <mxGeometry x="530" y="-1169" width="100" height="2160" as="geometry"/>
                </mxCell>
                <mxCell id="5" value="Inbuilt payment processor (ADYEN)" style="shape=umlLifeline;perimeter=lifelinePerimeter;whiteSpace=wrap;html=1;container=1;dropTarget=0;collapsible=0;recursiveResize=0;outlineConnect=0;portConstraint=eastwest;newEdgeStyle={&quot;curved&quot;:0,&quot;rounded&quot;:0};" vertex="1" parent="1">
                    <mxGeometry x="790" y="-1080" width="100" height="2160" as="geometry"/>
                </mxCell>
                <mxCell id="6" value="" style="endArrow=open;endFill=1;endSize=12;html=1;rounded=0;" edge="1" parent="1">
                    <mxGeometry width="160" relative="1" as="geometry">
                        <mxPoint x="587.5" y="-260" as="sourcePoint"/>
                        <mxPoint x="587.5" y="-260" as="targetPoint"/>
                    </mxGeometry>
                </mxCell>
                <mxCell id="7" value="&lt;font style=&quot;font-size: 12px;&quot;&gt;Response will have Client_Secret , Payment_Id&lt;/font&gt;&lt;span style=&quot;background-color: light-dark(rgb(251, 251, 251), rgb(21, 21, 21)); color: light-dark(rgba(0, 0, 0, 0), rgb(237, 237, 237)); font-family: monospace; font-size: 0px; text-align: start;&quot;&gt;%3CmxGraphModel%3E%3Croot%3E%3CmxCell%20id%3D%220%22%2F%3E%3CmxCell%20id%3D%221%22%20parent%3D%220%22%2F%3E%3CmxCell%20id%3D%222%22%20value%3D%22%22%20style%3D%22endArrow%3Dopen%3BendFill%3D1%3BendSize%3D12%3Bhtml%3D1%3Brounded%3D0%3B%22%20edge%3D%221%22%20parent%3D%221%22%3E%3CmxGeometry%20width%3D%22160%22%20relative%3D%221%22%20as%3D%22geometry%22%3E%3CmxPoint%20x%3D%2210%22%20y%3D%22133%22%20as%3D%22sourcePoint%22%2F%3E%3CmxPoint%20x%3D%22559.5%22%20y%3D%22133%22%20as%3D%22targetPoint%22%2F%3E%3C%2FmxGeometry%3E%3C%2FmxCell%3E%3C%2Froot%3E%3C%2FmxGraphModel%3E&lt;/span&gt;" style="html=1;verticalAlign=bottom;endArrow=open;dashed=1;endSize=8;curved=0;rounded=0;" edge="1" parent="1">
                    <mxGeometry x="-0.2015" relative="1" as="geometry">
                        <mxPoint x="576.5" y="-380.5" as="sourcePoint"/>
                        <mxPoint x="187" y="-380.5" as="targetPoint"/>
                        <mxPoint x="1" as="offset"/>
                    </mxGeometry>
                </mxCell>
                <mxCell id="8" value="&lt;span style=&quot;font-size: 12px;&quot;&gt;Response with configured payment methods&lt;/span&gt;" style="html=1;verticalAlign=bottom;endArrow=open;dashed=1;endSize=8;curved=0;rounded=0;exitX=-0.1;exitY=0.423;exitDx=0;exitDy=0;exitPerimeter=0;" edge="1" parent="1" source="40">
                    <mxGeometry x="0.001" y="-2" relative="1" as="geometry">
                        <mxPoint x="582" y="-170" as="sourcePoint"/>
                        <mxPoint x="188" y="-172" as="targetPoint"/>
                        <mxPoint as="offset"/>
                    </mxGeometry>
                </mxCell>
                <mxCell id="9" value="&lt;div style=&quot;&quot;&gt;&lt;span style=&quot;background-color: initial;&quot;&gt;&lt;font style=&quot;color: rgb(0, 0, 255);&quot;&gt;POST&amp;nbsp; /payments/{payment_id}/confirm&lt;/font&gt;&lt;/span&gt;&lt;span style=&quot;background-color: initial;&quot;&gt;&lt;font style=&quot;color: rgb(0, 0, 255);&quot; face=&quot;monospace&quot;&gt;&lt;span style=&quot;font-size: 0px;&quot;&gt;://sandbox.hyperswitch.io/payments/{payment_id}/confirm3CmxGraphModel%3E%3Croot%3E%3CmxCell%20id%3D%220%22%2F%3E%3CmxCell%20id%3D%221%22%20parent%3D%220%22%2F%3E%3CmxCell%20id%3D%222%22%20value%3D%22%22%20style%3D%22endArrow%3Dopen%3BendFill%3D1%3BendSize%3D12%3Bhtml%3D1%3Brounded%3D0%3B%22%20edge%3D%221%22%20parent%3D%221%22%3E%3CmxGeometry%20width%3D%22160%22%20relative%3D%221%22%20as%3D%22geometry%22%3E%3CmxPoint%20x%3D%22360%22%20y%3D%22380%22%20as%3D%22sourcePoint%22%2F%3E%3CmxPoint%20x%3D%22590%22%20y%3D%22380%22%20as%3D%22targetPoint%22%2F%3E%3C%2FmxGeometry%3E%3C%2FmxCell%3E%3C%2Froot%3E%3C%2FmxGraphModel%3E&lt;/span&gt;&lt;/font&gt;&lt;/span&gt;&lt;span style=&quot;background-color: initial; color: rgba(0, 0, 0, 0); font-family: monospace; font-size: 0px;&quot;&gt;%3CmxGraphModel%3E%3Croot%3E%3CmxCell%20id%3D%220%22%2F%3E%3CmxCell%20id%3D%221%22%20parent%3D%220%22%2F%3E%3CmxCell%20id%3D%222%22%20value%3D%22%22%20style%3D%22endArrow%3Dopen%3BendFill%3D1%3BendSize%3D12%3Bhtml%3D1%3Brounded%3D0%3B%22%20edge%3D%221%22%20parent%3D%221%22%3E%3CmxGeometry%20width%3D%22160%22%20relative%3D%221%22%20as%3D%22geometry%22%3E%3CmxPoint%20x%3D%22360%22%20y%3D%22380%22%20as%3D%22sourcePoint%22%2F%3E%3CmxPoint%20x%3D%22590%22%20y%3D%22380%22%20as%3D%22targetPoint%22%2F%3E%3C%2FmxGeometry%3E%3C%2FmxCell%3E%3C%2Froot%3E%3C%2FmxGraphModel%3E&lt;/span&gt;&lt;span style=&quot;background-color: initial; font-size: 0px;&quot;&gt;&lt;font style=&quot;color: rgb(0, 0, 255);&quot; face=&quot;monospace&quot;&gt;https://sandbox.hyperswitch.io/payments/{payment_id}/confirm&lt;/font&gt;&lt;/span&gt;&lt;/div&gt;&lt;div&gt;pass payment data (card details etc) or payment token ,cvc, return url&amp;nbsp;&lt;/div&gt;&lt;div&gt;with api key&lt;/div&gt;&lt;div&gt;&lt;br&gt;&lt;/div&gt;&lt;div&gt;If customer opts to save card details , pass &quot;nick_name&quot; in the card details&amp;nbsp;&lt;/div&gt;&lt;div&gt;and also the &quot;customer_acceptance&quot; object in the request body&lt;/div&gt;" style="text;html=1;align=left;verticalAlign=middle;resizable=0;points=[];autosize=1;strokeColor=none;fillColor=none;" vertex="1" parent="1">
                    <mxGeometry x="190" y="390" width="420" height="100" as="geometry"/>
                </mxCell>
                <mxCell id="10" value="" style="endArrow=open;endFill=1;endSize=12;html=1;rounded=0;" edge="1" parent="1">
                    <mxGeometry width="160" relative="1" as="geometry">
                        <mxPoint x="187.5" y="509.5" as="sourcePoint"/>
                        <mxPoint x="582.75" y="509.5" as="targetPoint"/>
                        <Array as="points">
                            <mxPoint x="478" y="509.5"/>
                        </Array>
                    </mxGeometry>
                </mxCell>
                <mxCell id="11" value="" style="endArrow=open;endFill=1;endSize=12;html=1;rounded=0;" edge="1" parent="1">
                    <mxGeometry width="160" relative="1" as="geometry">
                        <mxPoint x="587.5" y="585" as="sourcePoint"/>
                        <mxPoint x="839.5" y="585" as="targetPoint"/>
                    </mxGeometry>
                </mxCell>
                <mxCell id="12" value="&lt;div style=&quot;text-align: start;&quot;&gt;Call respective processor&lt;/div&gt;&lt;div style=&quot;text-align: start;&quot;&gt;&amp;nbsp; &amp;nbsp; &amp;nbsp;to process payment&lt;/div&gt;" style="text;html=1;align=center;verticalAlign=middle;resizable=0;points=[];autosize=1;strokeColor=none;fillColor=none;" vertex="1" parent="1">
                    <mxGeometry x="600" y="540" width="160" height="40" as="geometry"/>
                </mxCell>
                <mxCell id="13" value="&lt;span style=&quot;font-size: 12px;&quot;&gt;Response with payment status and other&amp;nbsp;&lt;/span&gt;&lt;div&gt;&lt;span style=&quot;font-size: 12px;&quot;&gt;information&lt;/span&gt;&lt;/div&gt;" style="html=1;verticalAlign=bottom;endArrow=open;dashed=1;endSize=8;curved=0;rounded=0;" edge="1" parent="1">
                    <mxGeometry x="-0.0019" y="-10" relative="1" as="geometry">
                        <mxPoint x="839.5" y="655" as="sourcePoint"/>
                        <mxPoint x="590" y="655" as="targetPoint"/>
                        <mxPoint x="1" as="offset"/>
                    </mxGeometry>
                </mxCell>
                <mxCell id="14" value="&lt;span style=&quot;font-size: 12px;&quot;&gt;Response with payment status, payment details&amp;nbsp;&lt;/span&gt;&lt;div&gt;&lt;span style=&quot;font-size: 12px;&quot;&gt;sent to the return url&amp;nbsp;&lt;/span&gt;&lt;/div&gt;" style="html=1;verticalAlign=bottom;endArrow=open;dashed=1;endSize=8;curved=0;rounded=0;" edge="1" parent="1">
                    <mxGeometry x="-0.1644" y="-10" relative="1" as="geometry">
                        <mxPoint x="577" y="695" as="sourcePoint"/>
                        <mxPoint x="187.5" y="695" as="targetPoint"/>
                        <mxPoint as="offset"/>
                    </mxGeometry>
                </mxCell>
                <mxCell id="15" value="&lt;span style=&quot;background-color: light-dark(#ffffff, var(--ge-dark-color, #121212));&quot;&gt;&lt;font style=&quot;color: light-dark(rgb(8, 22, 221), rgb(237, 237, 237));&quot;&gt;POST:/payments&amp;nbsp; with apiKey&amp;nbsp;&lt;/font&gt;&lt;/span&gt;&lt;div&gt;&lt;span style=&quot;background-color: light-dark(#ffffff, var(--ge-dark-color, #121212));&quot;&gt;&lt;font style=&quot;color: light-dark(rgb(8, 22, 221), rgb(237, 237, 237));&quot;&gt;(Payment Intent = Payments create)&lt;br&gt;Pass amount, currency, customer_Id&lt;/font&gt;&lt;/span&gt;&lt;/div&gt;" style="text;html=1;align=center;verticalAlign=middle;whiteSpace=wrap;rounded=0;" vertex="1" parent="1">
                    <mxGeometry x="172.5" y="-470" width="230" height="30" as="geometry"/>
                </mxCell>
                <mxCell id="16" value="" style="shape=umlLifeline;perimeter=lifelinePerimeter;whiteSpace=wrap;html=1;container=1;dropTarget=0;collapsible=0;recursiveResize=0;outlineConnect=0;portConstraint=eastwest;newEdgeStyle={&quot;curved&quot;:0,&quot;rounded&quot;:0};participant=umlActor;" vertex="1" parent="1">
                    <mxGeometry x="-620" y="-1080" width="20" height="2160" as="geometry"/>
                </mxCell>
                <mxCell id="17" value="" style="endArrow=open;endFill=1;endSize=12;html=1;rounded=0;" edge="1" parent="1" source="16">
                    <mxGeometry width="160" relative="1" as="geometry">
                        <mxPoint x="-219.5" y="-671" as="sourcePoint"/>
                        <mxPoint x="-380" y="-671" as="targetPoint"/>
                    </mxGeometry>
                </mxCell>
                <mxCell id="18" value="Customer adds item to cart&lt;div style=&quot;text-wrap-mode: nowrap;&quot;&gt;&lt;span style=&quot;text-wrap-mode: wrap;&quot;&gt;and proceeds to checkout&lt;/span&gt;&lt;/div&gt;&lt;div&gt;&lt;span style=&quot;text-wrap-mode: wrap;&quot;&gt;&lt;br&gt;&lt;/span&gt;&lt;/div&gt;" style="text;html=1;align=center;verticalAlign=middle;whiteSpace=wrap;rounded=0;" vertex="1" parent="1">
                    <mxGeometry x="-590" y="-710" width="240" height="30" as="geometry"/>
                </mxCell>
                <mxCell id="19" value="&lt;br&gt;&lt;div&gt;&lt;span style=&quot;color: rgb(0, 0, 255); text-wrap-mode: nowrap;&quot;&gt;GET:/account/payment_methods&lt;/span&gt;&lt;div&gt;&lt;span style=&quot;color: rgb(0, 0, 0); font-family: Helvetica; font-size: 12px; font-style: normal; font-variant-ligatures: normal; font-variant-caps: normal; font-weight: 400; letter-spacing: normal; orphans: 2; text-indent: 0px; text-transform: none; widows: 2; word-spacing: 0px; -webkit-text-stroke-width: 0px; white-space: nowrap; background-color: rgb(251, 251, 251); text-decoration-thickness: initial; text-decoration-style: initial; text-decoration-color: initial; float: none; display: inline !important;&quot;&gt;with Client_Secret as queryParam and&amp;nbsp;&lt;/span&gt;&lt;/div&gt;&lt;div&gt;&lt;span style=&quot;color: rgb(0, 0, 0); font-family: Helvetica; font-size: 12px; font-style: normal; font-variant-ligatures: normal; font-variant-caps: normal; font-weight: 400; letter-spacing: normal; orphans: 2; text-indent: 0px; text-transform: none; widows: 2; word-spacing: 0px; -webkit-text-stroke-width: 0px; white-space: nowrap; background-color: rgb(251, 251, 251); text-decoration-thickness: initial; text-decoration-style: initial; text-decoration-color: initial; float: none; display: inline !important;&quot;&gt;Publishable_Key as api-key&amp;nbsp;&lt;/span&gt;&lt;/div&gt;&lt;/div&gt;" style="text;html=1;align=left;verticalAlign=middle;whiteSpace=wrap;rounded=0;" vertex="1" parent="1">
                    <mxGeometry x="245" y="-260" width="92.5" height="30" as="geometry"/>
                </mxCell>
                <mxCell id="20" value="" style="endArrow=open;endFill=1;endSize=12;html=1;rounded=0;entryX=0.256;entryY=0.131;entryDx=0;entryDy=0;entryPerimeter=0;" edge="1" parent="1" target="40">
                    <mxGeometry width="160" relative="1" as="geometry">
                        <mxPoint x="179.5" y="-217.73000000000002" as="sourcePoint"/>
                        <mxPoint x="572.5" y="199.99" as="targetPoint"/>
                    </mxGeometry>
                </mxCell>
                <mxCell id="21" value="&lt;span style=&quot;font-size: 12px;&quot;&gt;Response with configured&amp;nbsp;&lt;/span&gt;&lt;div&gt;&lt;span style=&quot;font-size: 12px;&quot;&gt;payment methods, payment_id etc&lt;/span&gt;&lt;/div&gt;" style="html=1;verticalAlign=bottom;endArrow=open;dashed=1;endSize=8;curved=0;rounded=0;" edge="1" parent="1">
                    <mxGeometry y="-10" relative="1" as="geometry">
                        <mxPoint x="180.5" y="-155.5" as="sourcePoint"/>
                        <mxPoint x="-112.5" y="-155.5" as="targetPoint"/>
                        <mxPoint as="offset"/>
                    </mxGeometry>
                </mxCell>
                <mxCell id="22" value="" style="rounded=0;whiteSpace=wrap;html=1;" vertex="1" parent="1">
                    <mxGeometry x="172.5" y="-730" width="15" height="730" as="geometry"/>
                </mxCell>
                <mxCell id="23" value="Render Payment widget with eligible&amp;nbsp;&lt;div&gt;payment methods based on the configuration in Hyperswitch Control Center for the currency and for the merchant&lt;/div&gt;" style="shape=document;whiteSpace=wrap;html=1;boundedLbl=1;" vertex="1" parent="1">
                    <mxGeometry x="-620" y="-30" width="220" height="140" as="geometry"/>
                </mxCell>
                <mxCell id="24" value="User chooses the&amp;nbsp;&lt;div&gt;payment method and&amp;nbsp;&lt;/div&gt;&lt;div&gt;enters related&amp;nbsp;&lt;span style=&quot;background-color: transparent; color: light-dark(rgb(0, 0, 0), rgb(255, 255, 255));&quot;&gt;details (eg card details)&amp;nbsp; and Clicks Pay&lt;/span&gt;&lt;/div&gt;&lt;div&gt;&lt;div&gt;&lt;br&gt;&lt;/div&gt;&lt;/div&gt;" style="text;html=1;align=center;verticalAlign=middle;whiteSpace=wrap;rounded=0;" vertex="1" parent="1">
                    <mxGeometry x="-610" y="150" width="240" height="30" as="geometry"/>
                </mxCell>
                <mxCell id="25" value="" style="endArrow=open;endFill=1;endSize=12;html=1;rounded=0;" edge="1" parent="1">
                    <mxGeometry width="160" relative="1" as="geometry">
                        <mxPoint x="-600" y="210" as="sourcePoint"/>
                        <mxPoint x="-380" y="210" as="targetPoint"/>
                    </mxGeometry>
                </mxCell>
                <mxCell id="26" value="" style="endArrow=open;endFill=1;endSize=12;html=1;rounded=0;" edge="1" parent="1" target="62">
                    <mxGeometry width="160" relative="1" as="geometry">
                        <mxPoint x="-380" y="245" as="sourcePoint"/>
                        <mxPoint x="-180" y="245" as="targetPoint"/>
                    </mxGeometry>
                </mxCell>
                <mxCell id="27" value="Call internal api to process Payment&amp;nbsp;&lt;div&gt;&lt;br&gt;&lt;/div&gt;" style="text;html=1;align=center;verticalAlign=middle;whiteSpace=wrap;rounded=0;" vertex="1" parent="1">
                    <mxGeometry x="-90" y="320" width="140" height="30" as="geometry"/>
                </mxCell>
                <mxCell id="28" value="&lt;span style=&quot;font-size: 12px;&quot;&gt;Response with&lt;/span&gt;&lt;div&gt;&lt;span style=&quot;font-size: 12px;&quot;&gt;&amp;nbsp;payment status&lt;/span&gt;&lt;/div&gt;" style="html=1;verticalAlign=bottom;endArrow=open;dashed=1;endSize=8;curved=0;rounded=0;" edge="1" parent="1">
                    <mxGeometry x="0.0689" y="-10" relative="1" as="geometry">
                        <mxPoint x="172.5" y="795" as="sourcePoint"/>
                        <mxPoint x="-110" y="795" as="targetPoint"/>
                        <mxPoint x="1" as="offset"/>
                    </mxGeometry>
                </mxCell>
                <mxCell id="29" value="" style="rounded=0;whiteSpace=wrap;html=1;" vertex="1" parent="1">
                    <mxGeometry x="172.5" y="280" width="15" height="700" as="geometry"/>
                </mxCell>
                <mxCell id="30" value="" style="endArrow=open;endFill=1;endSize=12;html=1;rounded=0;" edge="1" parent="1" target="31">
                    <mxGeometry width="160" relative="1" as="geometry">
                        <mxPoint x="580" y="890" as="sourcePoint"/>
                        <mxPoint x="840" y="890" as="targetPoint"/>
                    </mxGeometry>
                </mxCell>
                <mxCell id="31" value="" style="rounded=0;whiteSpace=wrap;html=1;" vertex="1" parent="1">
                    <mxGeometry x="572.5" y="470" width="15" height="455" as="geometry"/>
                </mxCell>
                <mxCell id="32" value="&lt;span style=&quot;font-size: 11px; background-color: rgb(255, 255, 255);&quot;&gt;Update Client_Secret, Payment_Id&lt;/span&gt;&lt;div&gt;&lt;span style=&quot;font-size: 11px; background-color: rgb(255, 255, 255);&quot;&gt;&amp;nbsp;against the internal Payment record&lt;br&gt;&lt;/span&gt;&lt;/div&gt;" style="text;html=1;align=center;verticalAlign=middle;resizable=0;points=[];autosize=1;strokeColor=none;fillColor=none;" vertex="1" parent="1">
                    <mxGeometry x="-60" y="-350" width="200" height="40" as="geometry"/>
                </mxCell>
                <mxCell id="33" value="&lt;div&gt;&lt;span style=&quot;font-size: 11px; background-color: rgb(255, 255, 255);&quot;&gt;Create an internal&amp;nbsp;&lt;/span&gt;&lt;/div&gt;&lt;div&gt;&lt;span style=&quot;font-size: 11px; background-color: rgb(255, 255, 255);&quot;&gt;payment record&lt;/span&gt;&lt;/div&gt;" style="text;html=1;align=center;verticalAlign=middle;resizable=0;points=[];autosize=1;strokeColor=none;fillColor=none;" vertex="1" parent="1">
                    <mxGeometry x="-60" y="-620" width="110" height="40" as="geometry"/>
                </mxCell>
                <mxCell id="34" value="" style="curved=1;endArrow=classic;html=1;rounded=0;exitX=1;exitY=0.5;exitDx=0;exitDy=0;" edge="1" parent="1">
                    <mxGeometry width="50" height="50" relative="1" as="geometry">
                        <mxPoint x="-112.5" y="-599" as="sourcePoint"/>
                        <mxPoint x="-112" y="-584" as="targetPoint"/>
                        <Array as="points">
                            <mxPoint x="-110.5" y="-614"/>
                            <mxPoint x="-80.5" y="-624"/>
                            <mxPoint x="-60.5" y="-604"/>
                            <mxPoint x="-70.5" y="-584"/>
                        </Array>
                    </mxGeometry>
                </mxCell>
                <mxCell id="35" value="" style="curved=1;endArrow=classic;html=1;rounded=0;exitX=1;exitY=0.5;exitDx=0;exitDy=0;" edge="1" parent="1">
                    <mxGeometry width="50" height="50" relative="1" as="geometry">
                        <mxPoint x="-112.5" y="-325" as="sourcePoint"/>
                        <mxPoint x="-112" y="-310" as="targetPoint"/>
                        <Array as="points">
                            <mxPoint x="-110.5" y="-340"/>
                            <mxPoint x="-80.5" y="-350"/>
                            <mxPoint x="-60.5" y="-330"/>
                            <mxPoint x="-70.5" y="-310"/>
                        </Array>
                    </mxGeometry>
                </mxCell>
                <mxCell id="36" value="Error response" style="html=1;verticalAlign=bottom;endArrow=open;dashed=1;endSize=8;curved=0;rounded=0;strokeColor=#FF0000;" edge="1" parent="1">
                    <mxGeometry relative="1" as="geometry">
                        <mxPoint x="572" y="-310" as="sourcePoint"/>
                        <mxPoint x="189.5" y="-310" as="targetPoint"/>
                    </mxGeometry>
                </mxCell>
                <mxCell id="37" value="Error response" style="html=1;verticalAlign=bottom;endArrow=open;dashed=1;endSize=8;curved=0;rounded=0;strokeColor=#FF0000;" edge="1" parent="1">
                    <mxGeometry y="-20" relative="1" as="geometry">
                        <mxPoint x="168" y="-50" as="sourcePoint"/>
                        <mxPoint x="-112.5" y="-50" as="targetPoint"/>
                        <mxPoint as="offset"/>
                    </mxGeometry>
                </mxCell>
                <mxCell id="38" value="" style="curved=1;endArrow=classic;html=1;rounded=0;exitX=1;exitY=0.5;exitDx=0;exitDy=0;strokeColor=#FF0000;" edge="1" parent="1">
                    <mxGeometry width="50" height="50" relative="1" as="geometry">
                        <mxPoint x="187.5" y="-85" as="sourcePoint"/>
                        <mxPoint x="188" y="-70" as="targetPoint"/>
                        <Array as="points">
                            <mxPoint x="189.5" y="-100"/>
                            <mxPoint x="219.5" y="-110"/>
                            <mxPoint x="229.5" y="-70"/>
                        </Array>
                    </mxGeometry>
                </mxCell>
                <mxCell id="39" value="" style="html=1;verticalAlign=bottom;endArrow=open;dashed=1;endSize=8;curved=0;rounded=0;entryX=1.167;entryY=0.92;entryDx=0;entryDy=0;entryPerimeter=0;" edge="1" parent="1" source="4" target="40">
                    <mxGeometry x="-0.1611" y="-10" relative="1" as="geometry">
                        <mxPoint x="580" y="430" as="sourcePoint"/>
                        <mxPoint x="190.0050000000001" y="429.8000000000002" as="targetPoint"/>
                        <mxPoint as="offset"/>
                    </mxGeometry>
                </mxCell>
                <mxCell id="40" value="" style="rounded=0;whiteSpace=wrap;html=1;" vertex="1" parent="1">
                    <mxGeometry x="572.5" y="-240" width="15" height="170" as="geometry"/>
                </mxCell>
                <mxCell id="41" value="Error response" style="html=1;verticalAlign=bottom;endArrow=open;dashed=1;endSize=8;curved=0;rounded=0;strokeColor=#FF0000;" edge="1" parent="1">
                    <mxGeometry relative="1" as="geometry">
                        <mxPoint x="579.5" y="-114" as="sourcePoint"/>
                        <mxPoint x="190" y="-114" as="targetPoint"/>
                    </mxGeometry>
                </mxCell>
                <mxCell id="42" value="Error response" style="html=1;verticalAlign=bottom;endArrow=open;dashed=1;endSize=8;curved=0;rounded=0;strokeColor=#FF0000;" edge="1" parent="1">
                    <mxGeometry relative="1" as="geometry">
                        <mxPoint x="170" y="905" as="sourcePoint"/>
                        <mxPoint x="-110" y="905" as="targetPoint"/>
                    </mxGeometry>
                </mxCell>
                <mxCell id="43" value="Error response" style="html=1;verticalAlign=bottom;endArrow=open;dashed=1;endSize=8;curved=0;rounded=0;strokeColor=#FF0000;entryX=0.744;entryY=0.736;entryDx=0;entryDy=0;entryPerimeter=0;exitX=-0.144;exitY=0.602;exitDx=0;exitDy=0;exitPerimeter=0;" edge="1" parent="1">
                    <mxGeometry relative="1" as="geometry">
                        <mxPoint x="572.5" y="870" as="sourcePoint"/>
                        <mxPoint x="186.5" y="871" as="targetPoint"/>
                    </mxGeometry>
                </mxCell>
                <mxCell id="44" value="" style="curved=1;endArrow=classic;html=1;rounded=0;exitX=1;exitY=0.5;exitDx=0;exitDy=0;strokeColor=#FF0000;" edge="1" parent="1">
                    <mxGeometry width="50" height="50" relative="1" as="geometry">
                        <mxPoint x="-112.5" y="945" as="sourcePoint"/>
                        <mxPoint x="-112" y="960" as="targetPoint"/>
                        <Array as="points">
                            <mxPoint x="-110.5" y="930"/>
                            <mxPoint x="-80.5" y="920"/>
                            <mxPoint x="-70.5" y="960"/>
                        </Array>
                    </mxGeometry>
                </mxCell>
                <mxCell id="45" value="&lt;span style=&quot;color: rgba(0, 0, 0, 0); font-family: monospace; font-size: 0px; text-align: start;&quot;&gt;%3CmxGraphModel%3E%3Croot%3E%3CmxCell%20id%3D%220%22%2F%3E%3CmxCell%20id%3D%221%22%20parent%3D%220%22%2F%3E%3CmxCell%20id%3D%222%22%20value%3D%22Retry%20to%20fetch%20payment%20methods%26lt%3Bdiv%26gt%3BIf%20retry%20attempts%20%26amp%3Bgt%3B%20number%20of%20retries%26lt%3B%2Fdiv%26gt%3B%26lt%3Bdiv%26gt%3Bupdate%20Payment%20Status%20and%20end%20flow%26lt%3B%2Fdiv%26gt%3B%22%20style%3D%22text%3Bhtml%3D1%3Balign%3Dcenter%3BverticalAlign%3Dmiddle%3Bresizable%3D0%3Bpoints%3D%5B%5D%3Bautosize%3D1%3BstrokeColor%3Dnone%3BfillColor%3Dnone%3B%22%20vertex%3D%221%22%20parent%3D%221%22%3E%3CmxGeometry%20x%3D%22220%22%20y%3D%22470%22%20width%3D%22220%22%20height%3D%2260%22%20as%3D%22geometry%22%2F%3E%3C%2FmxCell%3E%3C%2Froot%3E%3C%2FmxGraphModel%3E&lt;/span&gt;" style="text;html=1;align=center;verticalAlign=middle;resizable=0;points=[];autosize=1;strokeColor=none;fillColor=none;" vertex="1" parent="1">
                    <mxGeometry x="345" y="1165" width="20" height="30" as="geometry"/>
                </mxCell>
                <mxCell id="46" value="Retry to process payment&amp;nbsp;&lt;div&gt;If retry attempts &amp;gt; number of retries allowed&lt;/div&gt;&lt;div&gt;update Payment Status as 'Failed' and end flow&lt;/div&gt;" style="text;html=1;align=center;verticalAlign=middle;resizable=0;points=[];autosize=1;strokeColor=none;fillColor=none;" vertex="1" parent="1">
                    <mxGeometry x="-107.5" y="931" width="280" height="60" as="geometry"/>
                </mxCell>
                <mxCell id="47" value="Hyperswitch will use the api key and other properties configured in Control center against the respective payment processor to authorise calls to the payment processor" style="shape=callout;whiteSpace=wrap;html=1;perimeter=calloutPerimeter;position2=0.38;" vertex="1" parent="1">
                    <mxGeometry x="680" y="460" width="210" height="100" as="geometry"/>
                </mxCell>
                <mxCell id="48" value="&lt;b&gt;&lt;font style=&quot;font-size: 36px;&quot;&gt;Hyperswitch - Inbuilt Connector flow for an existing customer&lt;/font&gt;&lt;/b&gt;" style="text;html=1;align=center;verticalAlign=middle;resizable=0;points=[];autosize=1;strokeColor=none;fillColor=none;" vertex="1" parent="1">
                    <mxGeometry x="-187.5" y="-1169" width="1080" height="60" as="geometry"/>
                </mxCell>
                <mxCell id="49" value="" style="rounded=0;whiteSpace=wrap;html=1;" vertex="1" parent="1">
                    <mxGeometry x="832.5" y="555" width="15" height="120" as="geometry"/>
                </mxCell>
                <mxCell id="50" value="" style="shape=link;html=1;rounded=0;" edge="1" parent="1">
                    <mxGeometry width="100" relative="1" as="geometry">
                        <mxPoint x="-647.5" y="-970" as="sourcePoint"/>
                        <mxPoint x="930" y="-980" as="targetPoint"/>
                    </mxGeometry>
                </mxCell>
                <mxCell id="51" value="One-Time Inbuilt Connector Setup" style="edgeLabel;html=1;align=center;verticalAlign=middle;resizable=0;points=[];" connectable="0" vertex="1" parent="50">
                    <mxGeometry x="-0.07" y="-2" relative="1" as="geometry">
                        <mxPoint x="57" y="-7" as="offset"/>
                    </mxGeometry>
                </mxCell>
                <mxCell id="52" value="" style="shape=link;html=1;rounded=0;" edge="1" parent="1">
                    <mxGeometry width="100" relative="1" as="geometry">
                        <mxPoint x="-640" y="-780" as="sourcePoint"/>
                        <mxPoint x="940" y="-790" as="targetPoint"/>
                    </mxGeometry>
                </mxCell>
                <mxCell id="53" value="Make Payment Flow for an existing customer" style="edgeLabel;html=1;align=center;verticalAlign=middle;resizable=0;points=[];" connectable="0" vertex="1" parent="52">
                    <mxGeometry x="-0.07" y="-2" relative="1" as="geometry">
                        <mxPoint x="-65" y="-7" as="offset"/>
                    </mxGeometry>
                </mxCell>
                <mxCell id="54" value="" style="rounded=0;whiteSpace=wrap;html=1;" vertex="1" parent="1">
                    <mxGeometry x="572.5" y="-940" width="15" height="110" as="geometry"/>
                </mxCell>
                <mxCell id="55" value="" style="curved=1;endArrow=classic;html=1;rounded=0;exitX=1;exitY=0.5;exitDx=0;exitDy=0;" edge="1" parent="1">
                    <mxGeometry width="50" height="50" relative="1" as="geometry">
                        <mxPoint x="586.5" y="-900" as="sourcePoint"/>
                        <mxPoint x="587" y="-885" as="targetPoint"/>
                        <Array as="points">
                            <mxPoint x="588.5" y="-915"/>
                            <mxPoint x="618.5" y="-925"/>
                            <mxPoint x="638.5" y="-905"/>
                            <mxPoint x="628.5" y="-885"/>
                        </Array>
                    </mxGeometry>
                </mxCell>
                <mxCell id="56" value="(1) Create &quot;Merchant_Id&quot; and generate Hyperswitch API Key.&amp;nbsp;&lt;div&gt;&lt;br&gt;&lt;/div&gt;&lt;div&gt;(2) Define Connector by updating ADYEN Key&lt;/div&gt;&lt;div&gt;&lt;br&gt;&lt;/div&gt;&lt;div&gt;(3) Enable Payment methods (e.g. PayPal, cards)&amp;nbsp; in both - Hyperswitch &amp;amp; ADYEN&lt;/div&gt;" style="text;html=1;align=left;verticalAlign=middle;whiteSpace=wrap;rounded=0;" vertex="1" parent="1">
                    <mxGeometry x="640" y="-930" width="180" height="110" as="geometry"/>
                </mxCell>
                <mxCell id="57" value="&lt;div&gt;&lt;span style=&quot;font-size: 11px; background-color: rgb(255, 255, 255);&quot;&gt;Create customer/Fetch customer&lt;/span&gt;&lt;/div&gt;" style="text;html=1;align=center;verticalAlign=middle;resizable=0;points=[];autosize=1;strokeColor=none;fillColor=none;" vertex="1" parent="1">
                    <mxGeometry x="-70" y="-560" width="180" height="30" as="geometry"/>
                </mxCell>
                <mxCell id="58" value="" style="curved=1;endArrow=classic;html=1;rounded=0;exitX=1;exitY=0.5;exitDx=0;exitDy=0;" edge="1" parent="1">
                    <mxGeometry width="50" height="50" relative="1" as="geometry">
                        <mxPoint x="-112.5" y="-539.5" as="sourcePoint"/>
                        <mxPoint x="-112" y="-524.5" as="targetPoint"/>
                        <Array as="points">
                            <mxPoint x="-110.5" y="-554.5"/>
                            <mxPoint x="-80.5" y="-564.5"/>
                            <mxPoint x="-60.5" y="-544.5"/>
                            <mxPoint x="-70.5" y="-524.5"/>
                        </Array>
                    </mxGeometry>
                </mxCell>
                <mxCell id="59" value="" style="endArrow=open;endFill=1;endSize=12;html=1;rounded=0;entryX=0.567;entryY=0.198;entryDx=0;entryDy=0;entryPerimeter=0;" edge="1" parent="1">
                    <mxGeometry width="160" relative="1" as="geometry">
                        <mxPoint x="187.5" y="-430" as="sourcePoint"/>
                        <mxPoint x="580.5050000000001" y="-428.31999999999994" as="targetPoint"/>
                    </mxGeometry>
                </mxCell>
                <mxCell id="60" value="" style="rounded=0;whiteSpace=wrap;html=1;" vertex="1" parent="1">
                    <mxGeometry x="572.5" y="-490" width="15" height="200" as="geometry"/>
                </mxCell>
                <mxCell id="61" value="Retry to fetch payment methods&lt;div&gt;If retry attempts &amp;gt; number of retries allowed&lt;/div&gt;&lt;div&gt;update Payment Status and end flow&lt;/div&gt;" style="text;html=1;align=center;verticalAlign=middle;resizable=0;points=[];autosize=1;strokeColor=none;fillColor=none;" vertex="1" parent="1">
                    <mxGeometry x="215" y="-110" width="260" height="60" as="geometry"/>
                </mxCell>
                <mxCell id="62" value="Payloop Server" style="shape=umlLifeline;perimeter=lifelinePerimeter;whiteSpace=wrap;html=1;container=1;dropTarget=0;collapsible=0;recursiveResize=0;outlineConnect=0;portConstraint=eastwest;newEdgeStyle={&quot;curved&quot;:0,&quot;rounded&quot;:0};" vertex="1" parent="1">
                    <mxGeometry x="-170" y="-1080" width="100" height="2160" as="geometry"/>
                </mxCell>
                <mxCell id="63" value="" style="rounded=0;whiteSpace=wrap;html=1;" vertex="1" parent="1">
                    <mxGeometry x="832.5" y="-940" width="15" height="110" as="geometry"/>
                </mxCell>
                <mxCell id="64" value="" style="curved=1;endArrow=classic;html=1;rounded=0;exitX=1;exitY=0.5;exitDx=0;exitDy=0;" edge="1" parent="1">
                    <mxGeometry width="50" height="50" relative="1" as="geometry">
                        <mxPoint x="847.5" y="-890" as="sourcePoint"/>
                        <mxPoint x="848" y="-875" as="targetPoint"/>
                        <Array as="points">
                            <mxPoint x="849.5" y="-905"/>
                            <mxPoint x="879.5" y="-915"/>
                            <mxPoint x="889.5" y="-875"/>
                        </Array>
                    </mxGeometry>
                </mxCell>
                <mxCell id="65" value="Configure allowed endpoints to hyperswitch" style="text;html=1;align=center;verticalAlign=middle;resizable=0;points=[];autosize=1;strokeColor=none;fillColor=none;" vertex="1" parent="1">
                    <mxGeometry x="890" y="-910" width="250" height="30" as="geometry"/>
                </mxCell>
                <mxCell id="66" value="" style="rounded=0;whiteSpace=wrap;html=1;" vertex="1" parent="1">
                    <mxGeometry x="-127.5" y="-700" width="15" height="700" as="geometry"/>
                </mxCell>
                <mxCell id="67" value="" style="endArrow=open;endFill=1;endSize=12;html=1;rounded=0;" edge="1" parent="1">
                    <mxGeometry width="160" relative="1" as="geometry">
                        <mxPoint x="-380" y="-641" as="sourcePoint"/>
                        <mxPoint x="-120.5" y="-641" as="targetPoint"/>
                        <Array as="points">
                            <mxPoint x="-269.5" y="-641"/>
                        </Array>
                    </mxGeometry>
                </mxCell>
                <mxCell id="68" value="&lt;div&gt;&lt;span style=&quot;text-wrap-mode: wrap;&quot;&gt;Internal api - to initiate a payment&lt;/span&gt;&lt;/div&gt;" style="text;html=1;align=center;verticalAlign=middle;whiteSpace=wrap;rounded=0;" vertex="1" parent="1">
                    <mxGeometry x="-390" y="-681" width="240" height="30" as="geometry"/>
                </mxCell>
                <mxCell id="69" value="" style="endArrow=open;endFill=1;endSize=12;html=1;rounded=0;" edge="1" parent="1">
                    <mxGeometry width="160" relative="1" as="geometry">
                        <mxPoint x="-111.25" y="-469" as="sourcePoint"/>
                        <mxPoint x="171.25" y="-470" as="targetPoint"/>
                        <Array as="points">
                            <mxPoint x="22.25" y="-470"/>
                        </Array>
                    </mxGeometry>
                </mxCell>
                <mxCell id="70" value="&lt;div&gt;&lt;span style=&quot;text-wrap-mode: wrap;&quot;&gt;Internal api - to initiate a payment&lt;/span&gt;&lt;/div&gt;" style="text;html=1;align=center;verticalAlign=middle;whiteSpace=wrap;rounded=0;" vertex="1" parent="1">
                    <mxGeometry x="-90" y="-490" width="240" height="20" as="geometry"/>
                </mxCell>
                <mxCell id="71" value="&lt;span style=&quot;font-size: 12px;&quot;&gt;Response with configured&amp;nbsp;&lt;/span&gt;&lt;div&gt;&lt;span style=&quot;font-size: 12px;&quot;&gt;payment methods, payment_id etc&lt;/span&gt;&lt;/div&gt;" style="html=1;verticalAlign=bottom;endArrow=open;dashed=1;endSize=8;curved=0;rounded=0;" edge="1" parent="1">
                    <mxGeometry y="-10" relative="1" as="geometry">
                        <mxPoint x="-130" y="-130" as="sourcePoint"/>
                        <mxPoint x="-383" y="-130" as="targetPoint"/>
                        <mxPoint as="offset"/>
                    </mxGeometry>
                </mxCell>
                <mxCell id="72" value="" style="rounded=0;whiteSpace=wrap;html=1;" vertex="1" parent="1">
                    <mxGeometry x="-127.5" y="230" width="15" height="820" as="geometry"/>
                </mxCell>
                <mxCell id="73" value="" style="endArrow=open;endFill=1;endSize=12;html=1;rounded=0;" edge="1" parent="1">
                    <mxGeometry width="160" relative="1" as="geometry">
                        <mxPoint x="-112.5" y="370" as="sourcePoint"/>
                        <mxPoint x="170" y="370" as="targetPoint"/>
                    </mxGeometry>
                </mxCell>
                <mxCell id="74" value="Call internal api to process Payment&amp;nbsp;&lt;div&gt;&lt;br&gt;&lt;/div&gt;" style="text;html=1;align=center;verticalAlign=middle;whiteSpace=wrap;rounded=0;" vertex="1" parent="1">
                    <mxGeometry x="-360" y="210" width="140" height="30" as="geometry"/>
                </mxCell>
                <mxCell id="75" value="&lt;span style=&quot;font-size: 12px;&quot;&gt;Response with&lt;/span&gt;&lt;div&gt;&lt;span style=&quot;font-size: 12px;&quot;&gt;&amp;nbsp;payment status&lt;/span&gt;&lt;/div&gt;" style="html=1;verticalAlign=bottom;endArrow=open;dashed=1;endSize=8;curved=0;rounded=0;" edge="1" parent="1">
                    <mxGeometry x="0.0689" y="-10" relative="1" as="geometry">
                        <mxPoint x="-127.5" y="900" as="sourcePoint"/>
                        <mxPoint x="-383.75" y="900" as="targetPoint"/>
                        <mxPoint x="1" as="offset"/>
                    </mxGeometry>
                </mxCell>
                <mxCell id="76" value="Error response" style="html=1;verticalAlign=bottom;endArrow=open;dashed=1;endSize=8;curved=0;rounded=0;strokeColor=#FF0000;" edge="1" parent="1">
                    <mxGeometry relative="1" as="geometry">
                        <mxPoint x="-127.5" y="999" as="sourcePoint"/>
                        <mxPoint x="-381.25" y="999" as="targetPoint"/>
                    </mxGeometry>
                </mxCell>
                <mxCell id="77" value="&lt;font style=&quot;font-size: 12px;&quot;&gt;Response will have Client_Secret , Payment_Id&lt;/font&gt;&lt;span style=&quot;background-color: light-dark(rgb(251, 251, 251), rgb(21, 21, 21)); color: light-dark(rgba(0, 0, 0, 0), rgb(237, 237, 237)); font-family: monospace; font-size: 0px; text-align: start;&quot;&gt;%3CmxGraphModel%3E%3Croot%3E%3CmxCell%20id%3D%220%22%2F%3E%3CmxCell%20id%3D%221%22%20parent%3D%220%22%2F%3E%3CmxCell%20id%3D%222%22%20value%3D%22%22%20style%3D%22endArrow%3Dopen%3BendFill%3D1%3BendSize%3D12%3Bhtml%3D1%3Brounded%3D0%3B%22%20edge%3D%221%22%20parent%3D%221%22%3E%3CmxGeometry%20width%3D%22160%22%20relative%3D%221%22%20as%3D%22geometry%22%3E%3CmxPoint%20x%3D%2210%22%20y%3D%22133%22%20as%3D%22sourcePoint%22%2F%3E%3CmxPoint%20x%3D%22559.5%22%20y%3D%22133%22%20as%3D%22targetPoint%22%2F%3E%3C%2FmxGeometry%3E%3C%2FmxCell%3E%3C%2Froot%3E%3C%2FmxGraphModel%3E&lt;/span&gt;" style="html=1;verticalAlign=bottom;endArrow=open;dashed=1;endSize=8;curved=0;rounded=0;" edge="1" parent="1">
                    <mxGeometry x="-0.0088" y="-5" relative="1" as="geometry">
                        <mxPoint x="170" y="-365" as="sourcePoint"/>
                        <mxPoint x="-112.5" y="-365.5" as="targetPoint"/>
                        <mxPoint as="offset"/>
                    </mxGeometry>
                </mxCell>
                <mxCell id="78" value="Error response" style="html=1;verticalAlign=bottom;endArrow=open;dashed=1;endSize=8;curved=0;rounded=0;strokeColor=#FF0000;" edge="1" parent="1">
                    <mxGeometry relative="1" as="geometry">
                        <mxPoint x="170" y="-280" as="sourcePoint"/>
                        <mxPoint x="-120" y="-280" as="targetPoint"/>
                    </mxGeometry>
                </mxCell>
                <mxCell id="79" value="Error response" style="html=1;verticalAlign=bottom;endArrow=open;dashed=1;endSize=8;curved=0;rounded=0;strokeColor=#FF0000;" edge="1" parent="1">
                    <mxGeometry y="-20" relative="1" as="geometry">
                        <mxPoint x="-130" y="-40" as="sourcePoint"/>
                        <mxPoint x="-380" y="-40" as="targetPoint"/>
                        <mxPoint as="offset"/>
                    </mxGeometry>
                </mxCell>
                <mxCell id="80" value="&lt;span style=&quot;font-size: 11px; background-color: rgb(255, 255, 255);&quot;&gt;Update the&amp;nbsp;&lt;/span&gt;&lt;div&gt;&lt;span style=&quot;font-size: 11px; background-color: rgb(255, 255, 255);&quot;&gt;payment status etc&lt;br&gt;&lt;/span&gt;&lt;/div&gt;" style="text;html=1;align=center;verticalAlign=middle;resizable=0;points=[];autosize=1;strokeColor=none;fillColor=none;" vertex="1" parent="1">
                    <mxGeometry x="-52.5" y="810" width="120" height="40" as="geometry"/>
                </mxCell>
                <mxCell id="81" value="" style="curved=1;endArrow=classic;html=1;rounded=0;exitX=1;exitY=0.5;exitDx=0;exitDy=0;entryX=0.833;entryY=0.802;entryDx=0;entryDy=0;entryPerimeter=0;" edge="1" parent="1">
                    <mxGeometry width="50" height="50" relative="1" as="geometry">
                        <mxPoint x="-110" y="840" as="sourcePoint"/>
                        <mxPoint x="-112.5" y="882" as="targetPoint"/>
                        <Array as="points">
                            <mxPoint x="-108" y="825"/>
                            <mxPoint x="-78" y="815"/>
                            <mxPoint x="-58" y="835"/>
                            <mxPoint x="-68" y="855"/>
                        </Array>
                    </mxGeometry>
                </mxCell>
            </root>
        </mxGraphModel>
    </diagram>
</mxfile>